<svg width="24" height="24" viewBox="0 0 24 24" fill="none" xmlns="http://www.w3.org/2000/svg">
<path d="M11.25 16.75H15.75C15.875 16.75 16 16.6562 16 16.5V15.5C16 15.375 15.875 15.25 15.75 15.25H11.25C11.0938 15.25 11 15.375 11 15.5V16.5C11 16.6562 11.0938 16.75 11.25 16.75ZM8.5 17H9.5C9.75 17 10 16.7812 10 16.5V15.5C10 15.25 9.75 15 9.5 15H8.5C8.21875 15 8 15.25 8 15.5V16.5C8 16.7812 8.21875 17 8.5 17ZM8.5 13H9.5C9.75 13 10 12.7812 10 12.5V11.5C10 11.25 9.75 11 9.5 11H8.5C8.21875 11 8 11.25 8 11.5V12.5C8 12.7812 8.21875 13 8.5 13ZM11.25 12.75H15.75C15.875 12.75 16 12.6562 16 12.5V11.5C16 11.375 15.875 11.25 15.75 11.25H11.25C11.0938 11.25 11 11.375 11 11.5V12.5C11 12.6562 11.0938 12.75 11.25 12.75ZM8.5 9H9.5C9.75 9 10 8.78125 10 8.5V7.5C10 7.25 9.75 7 9.5 7H8.5C8.21875 7 8 7.25 8 7.5V8.5C8 8.78125 8.21875 9 8.5 9ZM11.25 8.75H15.75C15.875 8.75 16 8.65625 16 8.5V7.5C16 7.375 15.875 7.25 15.75 7.25H11.25C11.0938 7.25 11 7.375 11 7.5V8.5C11 8.65625 11.0938 8.75 11.25 8.75ZM18 4H6C5.4375 4 5 4.46875 5 5V19C5 19.5625 5.4375 20 6 20H18C18.5312 20 19 19.5625 19 19V5C19 4.46875 18.5312 4 18 4ZM17.5 18.5H6.5V5.5H17.5V18.5Z" fill="#333333"/>
</svg>
