<svg width="24" height="24" viewBox="0 0 24 24" fill="none" xmlns="http://www.w3.org/2000/svg">
<path d="M20.5 5.5C20.75 5.5 21 5.28125 21 5V4.5C21 4.25 20.75 4 20.5 4H3.5C3.21875 4 3 4.25 3 4.5V5C3 5.28125 3.21875 5.5 3.5 5.5H4V18.5H3.5C3.21875 18.5 3 18.75 3 19V19.5C3 19.7812 3.21875 20 3.5 20H8.5C8.75 20 9 19.7812 9 19.5V14C9 12.3438 10.3125 11 12 11C13.6562 11 15 12.3438 15 14V19V19.5C15 19.7812 15.2188 20 15.5 20H20.5C20.75 20 21 19.7812 21 19.5V19C21 18.75 20.75 18.5 20.5 18.5H20V5.5H20.5ZM18.5 5.5V6.75H5.5V5.5H18.5ZM16.5 18.5V14C16.5 11.5312 14.4688 9.5 12 9.5C9.5 9.5 7.5 11.5312 7.5 14V18.5H5.5V8.25H18.5V18.5H16.5Z" fill="#333333"/>
</svg>
